<svg width="32" height="32" viewBox="0 0 32 32" fill="none" xmlns="http://www.w3.org/2000/svg">
<path fill-rule="evenodd" clip-rule="evenodd" d="M16 28C22.6273 28 28 22.6273 28 16C28 9.37266 22.6273 3.99999 16 3.99999C9.37266 3.99999 4 9.37266 4 16C4 22.6273 9.37266 28 16 28ZM16 29.3333C23.364 29.3333 29.3333 23.364 29.3333 16C29.3333 8.63599 23.364 2.66666 16 2.66666C8.636 2.66666 2.66666 8.63599 2.66666 16C2.66666 23.364 8.636 29.3333 16 29.3333Z" fill="#545454"/>
<path d="M8 23.7533C8 23.0647 8.51467 22.4827 9.2 22.4067C14.3433 21.8373 17.68 21.8887 22.812 22.4193C23.0683 22.4462 23.3112 22.5472 23.511 22.7099C23.7108 22.8726 23.859 23.0899 23.9373 23.3354C24.0157 23.5809 24.0208 23.8439 23.9521 24.0923C23.8835 24.3406 23.744 24.5636 23.5507 24.734C17.494 30.0133 14.0327 29.9407 8.42667 24.7393C8.15333 24.486 8 24.126 8 23.754V23.7533Z" fill="#545454"/>
<path fill-rule="evenodd" clip-rule="evenodd" d="M22.7433 23.082C17.652 22.5553 14.3633 22.506 9.27267 23.0693C9.10509 23.0889 8.95061 23.1695 8.8388 23.2958C8.72698 23.4222 8.6657 23.5853 8.66667 23.754C8.66667 23.9447 8.746 24.1253 8.88 24.2507C11.6587 26.828 13.764 27.9927 15.822 28C17.8873 28.0073 20.106 26.852 23.1127 24.232C23.2082 24.147 23.2769 24.0361 23.3106 23.9127C23.3442 23.7893 23.3413 23.6588 23.3022 23.5371C23.2631 23.4153 23.1894 23.3076 23.0902 23.2269C22.991 23.1462 22.8705 23.0961 22.7433 23.0827V23.082ZM9.12666 21.744C14.324 21.1687 17.7093 21.2207 22.8813 21.756C23.2669 21.7962 23.6323 21.948 23.9329 22.1928C24.2335 22.4375 24.4562 22.7646 24.5738 23.1339C24.6914 23.5033 24.6987 23.8989 24.5949 24.2724C24.4911 24.6459 24.2807 24.981 23.9893 25.2367C20.9393 27.8953 18.3993 29.3433 15.818 29.3333C13.2293 29.324 10.8013 27.8513 7.974 25.228C7.77157 25.0395 7.61019 24.8112 7.49996 24.5575C7.38973 24.3037 7.333 24.03 7.33333 23.7533C7.33236 23.2563 7.5148 22.7764 7.84571 22.4055C8.17662 22.0346 8.63272 21.7988 9.12666 21.7433V21.744Z" fill="#545454"/>
<path d="M21.3333 13.3333C21.3333 14.7478 20.7714 16.1044 19.7712 17.1046C18.771 18.1048 17.4145 18.6667 16 18.6667C14.5855 18.6667 13.229 18.1048 12.2288 17.1046C11.2286 16.1044 10.6667 14.7478 10.6667 13.3333C10.6667 11.9188 11.2286 10.5623 12.2288 9.5621C13.229 8.5619 14.5855 8 16 8C17.4145 8 18.771 8.5619 19.7712 9.5621C20.7714 10.5623 21.3333 11.9188 21.3333 13.3333V13.3333Z" fill="#545454"/>
<path fill-rule="evenodd" clip-rule="evenodd" d="M16 17.3333C17.0609 17.3333 18.0783 16.9119 18.8284 16.1618C19.5786 15.4116 20 14.3942 20 13.3333C20 12.2725 19.5786 11.255 18.8284 10.5049C18.0783 9.75476 17.0609 9.33333 16 9.33333C14.9391 9.33333 13.9217 9.75476 13.1716 10.5049C12.4214 11.255 12 12.2725 12 13.3333C12 14.3942 12.4214 15.4116 13.1716 16.1618C13.9217 16.9119 14.9391 17.3333 16 17.3333V17.3333ZM16 18.6667C17.4145 18.6667 18.771 18.1048 19.7712 17.1046C20.7714 16.1044 21.3333 14.7478 21.3333 13.3333C21.3333 11.9188 20.7714 10.5623 19.7712 9.5621C18.771 8.5619 17.4145 8 16 8C14.5855 8 13.229 8.5619 12.2288 9.5621C11.2286 10.5623 10.6667 11.9188 10.6667 13.3333C10.6667 14.7478 11.2286 16.1044 12.2288 17.1046C13.229 18.1048 14.5855 18.6667 16 18.6667V18.6667Z" fill="#545454"/>
</svg>
