<svg width="23" height="18" viewBox="0 0 23 18" fill="none" xmlns="http://www.w3.org/2000/svg">
<path d="M21.5938 17.75C21.5938 17.75 23 17.75 23 16.3333C23 14.9167 21.5938 10.6667 15.9688 10.6667C10.3438 10.6667 8.9375 14.9167 8.9375 16.3333C8.9375 17.75 10.3438 17.75 10.3438 17.75H21.5938ZM10.3747 16.3333C10.3643 16.3319 10.354 16.33 10.3438 16.3277C10.3452 15.9537 10.5786 14.8685 11.4125 13.891C12.1888 12.9744 13.5528 12.0833 15.9688 12.0833C18.3833 12.0833 19.7473 12.9758 20.525 13.891C21.3589 14.8685 21.5909 15.9551 21.5938 16.3277L21.5825 16.3305C21.576 16.3316 21.5694 16.3326 21.5628 16.3333H10.3747ZM15.9688 7.83333C16.7147 7.83333 17.43 7.53482 17.9575 7.00347C18.4849 6.47212 18.7812 5.75145 18.7812 5C18.7812 4.24855 18.4849 3.52788 17.9575 2.99653C17.43 2.46518 16.7147 2.16667 15.9688 2.16667C15.2228 2.16667 14.5075 2.46518 13.98 2.99653C13.4526 3.52788 13.1562 4.24855 13.1562 5C13.1562 5.75145 13.4526 6.47212 13.98 7.00347C14.5075 7.53482 15.2228 7.83333 15.9688 7.83333ZM20.1875 5C20.1875 5.55812 20.0784 6.11077 19.8664 6.6264C19.6544 7.14204 19.3436 7.61055 18.9519 8.0052C18.5601 8.39985 18.095 8.71291 17.5832 8.92649C17.0714 9.14007 16.5228 9.25 15.9688 9.25C15.4147 9.25 14.8661 9.14007 14.3543 8.92649C13.8425 8.71291 13.3774 8.39985 12.9856 8.0052C12.5939 7.61055 12.2831 7.14204 12.0711 6.6264C11.8591 6.11077 11.75 5.55812 11.75 5C11.75 3.87283 12.1945 2.79183 12.9856 1.9948C13.7768 1.19777 14.8499 0.75 15.9688 0.75C17.0876 0.75 18.1607 1.19777 18.9519 1.9948C19.743 2.79183 20.1875 3.87283 20.1875 5ZM10.2537 11.0633C9.69122 10.8849 9.11136 10.7676 8.52406 10.7134C8.19406 10.6818 7.86274 10.6662 7.53125 10.6667C1.90625 10.6667 0.5 14.9167 0.5 16.3333C0.5 17.2782 0.968281 17.75 1.90625 17.75H7.835C7.62653 17.3077 7.52256 16.8228 7.53125 16.3333C7.53125 14.9025 8.06141 13.4405 9.06406 12.2193C9.40578 11.8028 9.80375 11.4132 10.2537 11.0633ZM7.41875 12.0833C6.58647 13.3431 6.13687 14.8201 6.125 16.3333H1.90625C1.90625 15.965 2.13687 14.8742 2.975 13.891C3.74141 12.99 5.07313 12.1117 7.41875 12.0848V12.0833ZM2.60938 5.70833C2.60938 4.58116 3.05385 3.50016 3.84502 2.70313C4.63619 1.9061 5.70924 1.45833 6.82812 1.45833C7.94701 1.45833 9.02006 1.9061 9.81123 2.70313C10.6024 3.50016 11.0469 4.58116 11.0469 5.70833C11.0469 6.8355 10.6024 7.91651 9.81123 8.71354C9.02006 9.51057 7.94701 9.95833 6.82812 9.95833C5.70924 9.95833 4.63619 9.51057 3.84502 8.71354C3.05385 7.91651 2.60938 6.8355 2.60938 5.70833ZM6.82812 2.875C6.0822 2.875 5.36683 3.17351 4.83939 3.70486C4.31194 4.23622 4.01562 4.95689 4.01562 5.70833C4.01562 6.45978 4.31194 7.18045 4.83939 7.7118C5.36683 8.24316 6.0822 8.54167 6.82812 8.54167C7.57405 8.54167 8.28942 8.24316 8.81686 7.7118C9.34431 7.18045 9.64062 6.45978 9.64062 5.70833C9.64062 4.95689 9.34431 4.23622 8.81686 3.70486C8.28942 3.17351 7.57405 2.875 6.82812 2.875Z" fill="white"/>
</svg>
