<svg width="64" height="64" viewBox="0 0 64 64" fill="none" xmlns="http://www.w3.org/2000/svg">
<path d="M49.2267 41.7199C44.1067 44.3133 39.152 46.9066 32 46.9066C24.848 46.9066 19.8933 44.3133 14.7733 41.7199M23.4533 45.5639C22.2445 47.3275 20.9496 49.0304 19.5733 50.6666C9.73333 50.3866 6 43.9999 6 43.9999C6.13986 34.9507 8.33277 26.0514 12.4133 17.9733C16.0002 15.1672 20.3708 13.5457 24.92 13.3333L26.2533 16.4133C28.1577 16.1489 30.0774 16.0108 32 15.9999C33.9311 16.0063 35.8598 16.1399 37.7733 16.3999L39.1067 13.3199C43.6603 13.5439 48.0313 15.1795 51.6133 17.9999C55.6807 26.0722 57.8644 34.9619 58 43.9999C58 43.9999 54.2667 50.3866 44.4267 50.6666C43.0712 49.0382 41.7985 47.3428 40.6133 45.5866L23.4533 45.5639Z" stroke="#565656" stroke-width="1.33333" stroke-linecap="round" stroke-linejoin="round"/>
<path d="M23.7958 39.44C26.2626 39.44 28.2624 37.4403 28.2624 34.9734C28.2624 32.5065 26.2626 30.5067 23.7958 30.5067C21.3289 30.5067 19.3291 32.5065 19.3291 34.9734C19.3291 37.4403 21.3289 39.44 23.7958 39.44Z" stroke="#565656" stroke-width="1.33333" stroke-linecap="round" stroke-linejoin="round"/>
<path d="M40.204 39.44C42.6708 39.44 44.6706 37.4403 44.6706 34.9734C44.6706 32.5065 42.6708 30.5067 40.204 30.5067C37.7371 30.5067 35.7373 32.5065 35.7373 34.9734C35.7373 37.4403 37.7371 39.44 40.204 39.44Z" stroke="#565656" stroke-width="1.33333" stroke-linecap="round" stroke-linejoin="round"/>
</svg>
