<svg width="25" height="25" viewBox="0 0 25 25" fill="none" xmlns="http://www.w3.org/2000/svg">
<path d="M19.3988 15.8175C17.4576 16.8008 15.5791 17.784 12.8675 17.784C10.156 17.784 8.27747 16.8008 6.3363 15.8175M9.6272 17.2749C9.16888 17.9435 8.67794 18.5892 8.15615 19.2095C4.42545 19.1034 3.01001 16.682 3.01001 16.682C3.06304 13.2511 3.89445 9.87705 5.44154 6.81432C6.80146 5.75044 8.45851 5.13567 10.1833 5.05513L10.6888 6.22287C11.4108 6.12264 12.1386 6.07029 12.8675 6.06616C13.5997 6.06857 14.3309 6.11923 15.0564 6.21782L15.5619 5.05008C17.2884 5.13498 18.9456 5.75511 20.3037 6.82444C21.8458 9.88493 22.6737 13.2553 22.7251 16.682C22.7251 16.682 21.3096 19.1034 17.5789 19.2095C17.0651 18.5922 16.5825 17.9494 16.1332 17.2835L9.6272 17.2749Z" stroke="black" stroke-linecap="round" stroke-linejoin="round"/>
<path d="M9.7572 14.9531C10.6925 14.9531 11.4507 14.1949 11.4507 13.2596C11.4507 12.3244 10.6925 11.5662 9.7572 11.5662C8.82192 11.5662 8.06372 12.3244 8.06372 13.2596C8.06372 14.1949 8.82192 14.9531 9.7572 14.9531Z" stroke="black" stroke-linecap="round" stroke-linejoin="round"/>
<path d="M15.978 14.9531C16.9133 14.9531 17.6715 14.1949 17.6715 13.2596C17.6715 12.3244 16.9133 11.5662 15.978 11.5662C15.0427 11.5662 14.2845 12.3244 14.2845 13.2596C14.2845 14.1949 15.0427 14.9531 15.978 14.9531Z" stroke="black" stroke-linecap="round" stroke-linejoin="round"/>
</svg>
