<svg width="70" height="70" viewBox="0 0 70 70" fill="none" xmlns="http://www.w3.org/2000/svg">
<path fill-rule="evenodd" clip-rule="evenodd" d="M59.432 0.174281C54.1105 1.32228 51.2425 6.44878 53.159 11.3858C53.723 12.8383 53.635 12.9513 45.893 20.7043L38.0565 28.5523L35.325 27.3018C30.7355 25.2008 25.301 26.2083 21.4645 29.8708C20.575 30.7203 19.6385 31.7978 19.3835 32.2658C18.9585 33.0448 18.45 32.9678 13.301 31.3433C10.1455 30.3478 7.68196 29.3008 7.68196 28.9553C7.68196 27.9108 5.43646 26.1653 4.09196 26.1653C3.39096 26.1653 2.25096 26.6103 1.55996 27.1538C-2.06254 30.0033 1.20196 35.6858 5.45946 33.9418C6.74996 33.4133 7.58996 33.5558 12.2565 35.0963L17.581 36.8543L17.6125 39.5203C17.6525 42.8628 18.987 45.8688 21.4955 48.2658C26.047 52.6153 32.8385 52.9703 38.218 49.1393L39.6965 48.0868L46.4365 52.9278C50.144 55.5903 53.047 57.9793 52.888 58.2368C52.2515 59.2658 52.6555 63.1533 53.5885 64.9823C54.857 67.4683 57.921 69.2488 60.932 69.2488C67.332 69.2488 71.206 62.5933 68.217 56.7338C66.308 52.9918 60.684 51.3853 57.033 53.5393L55.41 54.4968L48.651 49.7063L41.8925 44.9153L42.4985 42.9153C43.4705 39.7108 43.297 36.6838 41.9805 33.8563L40.789 31.2968L48.64 23.4573C56.396 15.7123 56.509 15.6243 57.9615 16.1883C63.4535 18.3203 69.2655 14.3238 69.2655 8.41528C69.2655 3.15428 64.4245 -0.902719 59.432 0.174281Z" fill="#EB5328"/>
</svg>
