<svg width="67" height="26" viewBox="0 0 67 26" fill="none" xmlns="http://www.w3.org/2000/svg">
<g clip-path="url(#clip0_45_14)">
<path d="M110.996 25.3773C100.002 25.3773 100.002 17.2118 89.0067 17.2118C78.0114 17.2118 78.0062 25.3773 67.0077 25.3773C56.0093 25.3773 56.0124 17.2118 45.0171 17.2118C34.0134 17.2118 34.0134 25.3773 23.0114 25.3773C12.0093 25.3773 12.0077 17.2118 1.00562 17.2118" stroke="white" stroke-width="3.863" stroke-linecap="round" stroke-linejoin="round"/>
<path d="M110.996 14.0825C100.002 14.0825 100.002 5.91791 89.0065 5.91791C78.0112 5.91791 78.006 14.0825 67.0075 14.0825C56.0091 14.0825 56.0122 5.91791 45.0169 5.91791C34.0133 5.91791 34.0133 14.0825 23.0112 14.0825C12.0091 14.0825 12.007 5.91791 1.00491 5.91791" stroke="white" stroke-width="3.863" stroke-linecap="round" stroke-linejoin="round"/>
<path d="M110.996 2.78856C100.002 2.78856 100.002 -5.37695 89.0068 -5.37695C78.0115 -5.37695 78.0063 2.78856 67.0078 2.78856C56.0094 2.78856 56.0125 -5.37695 45.0172 -5.37695C34.0136 -5.37695 34.0136 2.78856 23.0115 2.78856C12.0094 2.78856 12.0078 -5.37695 1.00574 -5.37695" stroke="white" stroke-width="3.863" stroke-linecap="round" stroke-linejoin="round"/>
</g>
<defs>
<clipPath id="clip0_45_14">
<rect width="112" height="32" fill="white" transform="translate(0 -6)"/>
</clipPath>
</defs>
</svg>
