<svg width="12" height="12" viewBox="0 0 12 12" fill="none" xmlns="http://www.w3.org/2000/svg">
<path d="M11.2406 9.36834L9.34022 7.46794L7.87847 6.86402C8.36518 6.17188 8.62594 5.34614 8.625 4.5C8.625 2.22546 6.77454 0.375 4.5 0.375C2.22546 0.375 0.375 2.22546 0.375 4.5C0.375 6.77454 2.22546 8.625 4.5 8.625C5.35351 8.62597 6.18607 8.36071 6.8817 7.86616L7.48404 9.32398L9.38438 11.2245C9.50625 11.3464 9.65094 11.443 9.81018 11.509C9.96942 11.575 10.1401 11.6089 10.3125 11.6089C10.4848 11.6089 10.6555 11.575 10.8147 11.509C10.974 11.4431 11.1187 11.3464 11.2406 11.2245C11.3625 11.1027 11.4591 10.958 11.5251 10.7987C11.5911 10.6395 11.625 10.4688 11.625 10.2965C11.625 10.1241 11.5911 9.95341 11.5251 9.79417C11.4592 9.63492 11.3625 9.49023 11.2406 9.36834ZM1.125 4.5C1.125 2.63906 2.63906 1.125 4.5 1.125C6.36094 1.125 7.875 2.63906 7.875 4.5C7.875 6.36094 6.36094 7.875 4.5 7.875C2.63906 7.875 1.125 6.36094 1.125 4.5ZM10.7103 10.6942C10.6047 10.7995 10.4616 10.8586 10.3125 10.8586C10.1634 10.8586 10.0203 10.7995 9.91474 10.6942L8.12009 8.8995L7.56007 7.54399L8.91563 8.10401L10.7103 9.89866C10.8156 10.0042 10.8748 10.1473 10.8748 10.2964C10.8748 10.4456 10.8156 10.5886 10.7103 10.6942Z" fill="#FE4400"/>
</svg>
