<svg width="26" height="14" viewBox="0 0 26 14" fill="none" xmlns="http://www.w3.org/2000/svg">
<path d="M19.623 4.2456V9.43041L24.9999 12.9559V0.823532L19.623 4.2456ZM1.92406 1.13373H15.4285C17.3951 1.13373 19.4923 2.37947 19.4923 4.0388V11.5034C19.4923 11.778 19.3549 12.0416 19.1099 12.2363C18.865 12.4309 18.5326 12.541 18.1855 12.5423H4.2889C2.05474 12.5423 0.747857 10.8829 0.747857 9.32701V2.16774C0.722899 2.03624 0.735036 1.902 0.783398 1.77465C0.83176 1.64729 0.915149 1.52999 1.02758 1.43115C1.14001 1.33231 1.2787 1.25438 1.4337 1.20296C1.58869 1.15154 1.75615 1.1279 1.92406 1.13373Z" stroke="black" stroke-linejoin="round"/>
</svg>
