<svg width="66" height="40" viewBox="0 0 66 40" fill="none" xmlns="http://www.w3.org/2000/svg">
<path d="M50.818 11.6188V27.7074L65 38.6471V1L50.818 11.6188ZM4.13562 1.96257H39.7547C44.9417 1.96257 50.4733 5.82811 50.4733 10.9771V34.1398C50.4733 34.9922 50.1107 35.8099 49.4647 36.414C48.8187 37.0182 47.942 37.3596 47.0263 37.3636H10.3731C4.48032 37.3636 1.03331 32.2147 1.03331 27.3866V5.17112C0.967476 4.76307 0.999488 4.34651 1.12705 3.95134C1.25461 3.55616 1.47455 3.19216 1.7711 2.88546C2.06765 2.57875 2.43345 2.33695 2.84226 2.17738C3.25107 2.01782 3.69275 1.94446 4.13562 1.96257V1.96257Z" stroke="#565656" stroke-linejoin="round"/>
</svg>
